<?xml version="1.0" encoding="utf-8"?>
<!-- Generator: Adobe Illustrator 24.1.3, SVG Export Plug-In . SVG Version: 6.00 Build 0)  -->
<svg version="1.1" id="Layer_1" xmlns="http://www.w3.org/2000/svg" xmlns:xlink="http://www.w3.org/1999/xlink" x="0px" y="0px"
	 viewBox="0 0 2412.4 1080" style="enable-background:new 0 0 2412.4 1080;" xml:space="preserve">
<style type="text/css">
	.st0{display:none;}
	.st1{fill:#FFFFFF;}
	.st2{font-family:'MontserratAlternates-SemiBold';}
	.st3{font-size:105.973px;}
	.st4{letter-spacing:2;}
	.st5{font-family:'FONTSPRINGDEMO-GeometosNeueRegular';}
	.st6{font-size:93.2888px;}
</style>
<rect x="-302.5" y="-230" class="st0" width="2967.6" height="1771.5"/>
<path class="st1" d="M2075.6,701.5c-3.6,0.6-7.2,0.4-10.7,0.1c-0.8-4.6-1.2-75.7-0.6-95.7c0-0.9,0.3-1.8,0.4-2.9
	c3.7-0.6,7.1-0.4,10.9-0.1c0.2,0.9,0.5,1.8,0.6,2.7c0.1,1.1,0,2.2,0,3.4c0,28.9,0,57.8,0,86.8
	C2076.2,697.7,2076.6,699.6,2075.6,701.5z M2018.9,696.2c0-26.7,0-53.3,0-80c0-3.5,0-7,0-10.5c0-0.9-0.3-1.8-0.5-2.8
	c-3.7-0.3-7.2-0.3-10.9,0c-0.1,1.5-0.3,2.8-0.3,4c0,4.6,0,9.3,0,13.9c0,25.2,0,50.4,0,75.6c0,1.7-0.5,3.5,0.8,5.3
	c3.3,0,6.8,0.3,10.3-0.2C2019.2,699.7,2018.9,698,2018.9,696.2z M2047.5,700c0-31.8,0-63.5,0-95.3c0-0.4-0.2-0.9-0.5-1.6
	c-3.6-0.4-7.1-0.5-10.9,0.1c-0.1,1-0.3,1.7-0.3,2.5c0,31.1,0,62.3,0,93.4c0,0.9,0.4,1.8,0.6,2.8c3.3,0,6.3,0,9.3,0
	c0.4,0,0.9-0.3,1.3-0.5C2047.3,700.8,2047.5,700.4,2047.5,700z M1880.6,296.3c0,134.6,0,269.2,0,403.9c0,0.4,0.3,0.9,0.4,1.5
	c1.7,0.7,3.4,0.4,5.2,0.4c14.1,0,28.1,0,42.2,0c9.6,0,19.2,0,28.8,0c1.5,0,3.2,0.4,4.9-0.8c0-1.8,0.1-3.7,0.1-5.6
	c0-49.6,0-99.1,0-148.7c0-1.4,0-2.9,0-4.3c0-0.9,0.2-1.8,0.3-3c2-0.1,3.7-0.2,5.4-0.2c27.2,0,54.4,0,81.6,0c8.8,0,17.6,0,26.4,0
	c1.2,0,2.4-0.2,3.9-0.3c0.1-1.9,0.2-3.4,0.2-5c0-10.6,0-21.1,0-31.7c0-1.4-0.4-2.9,1-4.2c2.5,0.2,5.2-0.4,8,0.4
	c0.7,3.7,0.2,7.4,0.4,11.1c0.1,3.6-0.4,7.3,0.4,11.2c1.7,0.1,3.3,0.2,4.8,0.2c7.7,0,15.4,0,23,0c1.2,0,2.4,0.2,3.9,0.4
	c0,2.4,0.1,4.4,0.1,6.5c0,55.5,0,111,0,166.4c0,1.6,0,3.2,0,4.8c0,0.8,0.3,1.5,0.4,2.3c2.7,0.5,5.1,0.7,7.7-0.1
	c0.1-2,0.1-3.7,0.1-5.5c0-13.1,0-26.2,0-39.3c0-1.5-0.5-3.2,0.9-4.6c2.5-0.2,5-0.4,7.5,0.2c0.8,1.9,0.5,3.7,0.5,5.4
	c0,13.1,0,26.2,0,39.3c0,1.5-0.4,3.2,0.7,4.6c4.2,0.6,62.3,0.9,78.2,0.4c0.9,0,1.8-0.2,2.9-0.4c0.2-0.8,0.4-1.4,0.4-2
	c0-134.5,0-268.9-0.1-403.4c0-0.4-0.3-0.9-0.5-1.5c-1.1-0.1-2.2-0.3-3.3-0.3c-24.8,0-49.6,0-74.4,0c-1.1,0-2.1,0.3-3.1,0.4
	c-0.8,2.3-0.5,4.4-0.5,6.4c0,49.6,0,99.1,0,148.7c0,1.6,0,3.2,0,4.8c-0.1,0.9-0.3,1.8-0.6,2.9c-2.2,0.1-4.1,0.1-6,0.1
	c-54.7,0-109.4,0-164.1,0c-1.1,0-2.2,0.1-3.4,0c-0.9-0.1-1.8-0.3-3-0.5c0-2.1-0.1-4-0.1-5.9c0-49.9,0-99.8,0-149.7
	c0-1.4,0.1-2.9,0-4.3c-0.1-0.9-0.4-1.8-0.6-2.9c-26.4,0-52.6,0-78.8,0c-0.6,0-1.2,0.2-1.8,0.4
	C1880.9,295.4,1880.6,295.8,1880.6,296.3z M2130.6,573.8c-0.2-0.9-0.4-1.7-0.4-2.4c0-15.9,0-31.9,0-47.8c0-0.6,0.1-1.2,0.2-2.1
	c2.7-0.7,5.3-0.4,8.2-0.2c0.2,0.9,0.4,1.6,0.4,2.4c0,15.9,0,31.9,0,47.8c0,0.6-0.2,1.2-0.3,2.3
	C2135.8,573.8,2133.3,573.8,2130.6,573.8z M2130.2,635.7c0-15.3,0-30.6,0-45.9c0-0.4,0.3-0.9,0.5-1.5c2.5-0.6,5-0.4,7.8-0.1
	c0.2,0.9,0.5,1.8,0.5,2.6c0,14.7,0,29.3,0,44c0,0.9-0.2,1.8-0.3,3c-2.7,0.5-5.2,0.4-8.1,0.1C2130.4,636.9,2130.2,636.3,2130.2,635.7
	z M948.8,701.3c-0.7,0.3-1.1,0.6-1.5,0.6c-1.3,0.1-2.6,0.1-3.8,0.1c-28.8,0-57.6,0-86.4,0c-6.2,0-4.8,0.4-8.3-4.1
	c-40.9-51.4-81.8-102.9-122.7-154.3c-1.1-1.4-2.2-2.7-3.2-4c-6.3-0.6-27.9-0.5-31.4,0.3c-0.7,1.9-0.4,4-0.4,6.1
	c0,37.1,0,74.2,0,111.3c0,13,0,25.9,0,38.9c0,1.7-0.1,3.5-0.2,5.5c-1.5,0.1-2.8,0.3-4,0.4c-31.9,0.5-73.4,0.2-77.3-0.6
	c-0.1-0.5-0.3-1.1-0.4-1.7c-0.4-7.8-0.1-237.7,0.4-241.5c0.8-0.1,1.7-0.4,2.6-0.4c1.6-0.1,3.2,0,4.8,0c69.3,0,138.5,0,207.8,0
	c4.2,0,8.3-0.3,12.4-1.3c10.2-2.6,18.2-8.3,24.2-17c0.8-1.2,1.6-2.4,2.5-3.9c9.2,0.2,18.4,1.1,27.6,1.8c9.3,0.6,18.5,1.3,27.8,2
	c9.2,0.6,18.4,1.2,27.9,2c-0.2,1.8-0.3,3-0.6,4.2c-10.6,45.3-48,81.7-93.4,91.1c-8.8,1.8-17.7,2.8-26.7,2.8c-1.4,0-2.9,0.1-4.3,0.2
	c-0.1,0-0.2,0.2-0.3,0.3c-0.1,0.1-0.2,0.3-0.2,0.4c0,0.1,0.1,0.3,0.2,0.4c0.2,0.3,0.3,0.6,0.5,0.8c0.6,0.8,1.2,1.5,1.8,2.3
	c41.3,51.9,82.6,103.9,123.9,155.8c0.2,0.2,0.4,0.5,0.5,0.8C948.6,700.5,948.6,700.7,948.8,701.3z M1519.9,701.7
	c-0.1-1-0.3-1.8-0.3-2.5c-0.4-11.2-0.1-74.3,0.4-78.4c0.8-0.2,1.7-0.4,2.6-0.5c1.3-0.1,2.6,0,3.8,0c67.7,0,135.3,0,203,0
	c4.3,0,8.7,0.3,12.9-0.1c19.3-1.8,34.8-18.4,35.9-37.7c1.3-21-13.4-38.7-32.6-42.5c-2.8-0.5-5.7-0.7-8.6-0.7
	c-11.5,0-23,0.1-34.5,0.1c-20.2,0-40.3,0-60.5,0c-54.9-0.1-102.5-36-117.8-88.7c-0.9-3-1.6-6.2-2.3-9c0.3-0.4,0.4-0.6,0.5-0.7
	c0.1-0.1,0.3-0.2,0.4-0.2c26.6-2,53.3-3.9,79.9-5.8c0.8-0.1,1.6,0,2.4,0c0.8,1.2,1.5,2.2,2.1,3.3c8.2,12.6,19.9,19.2,34.9,19.4
	c19.3,0.2,38.7,0.1,58.1,0.1c12.8,0,25.6-0.1,38.4,0c31.8,0.3,59.4,11.4,82.6,33c20.1,18.7,32.7,41.7,37.1,68.8
	c11,67.2-33,126.6-95.3,140c-8.2,1.7-16.4,2.6-24.8,2.6c-71.2,0-142.3,0-213.5,0C1523.2,702,1521.6,701.8,1519.9,701.7z
	 M1489.8,407.1c-0.5-6.2-0.9-11.9-1.6-17.6c-0.7-5.9-1.4-11.7-2.4-17.6c-1-5.7-2.2-11.3-3.6-16.9c-1.4-5.6-3-11.1-4.7-16.6
	c-1.8-5.6-3.8-11.2-6-16.7c-2.1-5.3-4.5-10.6-7-15.8c-2.5-5.2-5.2-10.3-8-15.3c-2.8-5-5.9-9.9-9-14.7c-3.3-4.9-6.7-9.7-10.3-14.4
	c-3.5-4.6-7.2-9-11-13.3c-3.8-4.3-7.8-8.5-11.8-12.6c-4.2-4.2-8.5-8.2-13-12.1c-4.3-3.8-8.8-7.4-13.4-10.8
	c-4.6-3.5-9.3-6.8-14.1-9.9c-5-3.2-10-6.3-15.2-9.2c-5-2.8-10.1-5.4-15.3-7.9c-5.2-2.5-10.5-4.7-15.8-6.8c-5.4-2.1-10.8-4-16.3-5.7
	c-5.6-1.8-11.3-3.3-17.1-4.7c-5.6-1.3-11.2-2.4-16.9-3.4c-5.7-1-11.4-1.7-17.1-2.3c-5.9-0.6-11.8-1-17.7-1.2
	c-5.7-0.2-11.5-0.2-17.3,0c-43.2,1.8-83.5,13.4-120.6,35.5c-37.2,22.1-66.9,51.7-89.1,88.8c-22.2,37.1-34,77.3-35.9,120.3
	c-3.4,1-15,1.1-19.8,0.3c-0.6-4-1.1-8.1-1.8-12.2c-3.7-21.9-12.5-41.5-26.1-59c-3.8-4.9-3.8-3.1-1.8-9.9
	c24.1-81.1,81.2-150.3,156.5-190c28.8-15.2,59.2-25.6,91.2-31.5c23.5-4.3,47.3-5.9,71.2-4.8c140.1,6.5,254,101.7,291.1,228.2
	c0.4,1.2,0.7,2.5,1.1,4c-0.7,1-1.5,2.2-2.4,3.3c-12.8,16.2-21.4,34.4-25.7,54.6c-1.2,5.6-1.9,11.3-2.9,17.2
	c-3.1,1.1-6.4,0.4-9.7,0.5C1496.8,407.2,1493.6,407.1,1489.8,407.1z M467.6,539.4c-22.9,0-45.8,0-68.6,0c-22.8,0-45.7,0-68.7,0
	c-0.2,1.3-0.4,2.3-0.4,3.2c-0.1,1.4,0,2.9,0,4.3c0,49.6,0,99.1,0,148.7c0,1.9-0.1,3.8-0.1,5.7c-1.7,1-3.3,0.7-4.9,0.7
	c-9.6,0-19.2,0-28.8,0c-14.1,0-28.2,0-42.2,0c-1.7,0-3.5,0.2-5.3-0.5c-0.1-0.6-0.4-1.3-0.4-1.9c0-80.4,0-160.8,0-241.5
	c1.2-0.2,2.1-0.4,3-0.5c1.3-0.1,2.6,0,3.8,0c95.8,0,191.6,0,287.4,0c1.9,0,3.8,0,5.5,0c0.6,1.3-0.2,1.8-0.7,2.3
	c-0.7,0.8-1.6,1.6-2.4,2.4c-24.4,24.4-48.9,48.8-73.3,73.3C470.3,536.9,469,538.1,467.6,539.4z M755.4,417.2
	c14,1.1,28.1,2.2,42.1,3.2c10.8,0.8,21.7,1.5,32.5,2.2c12.1,0.9,24.2,1.7,36.4,2.6c10.5,0.7,21.1,1.4,31.6,2.2
	c12.4,0.9,24.9,1.8,37.3,2.7c10.4,0.7,20.7,1.4,31.1,2.2c12.1,0.9,24.2,1.7,36.4,2.6c10.5,0.7,21.1,1.4,31.6,2.2
	c12.3,0.9,24.6,1.8,36.8,2.6c10.5,0.7,21.1,1.5,31.6,2.2c11.3,0.8,22.6,1.7,34,2.5c11.2,0.8,22.3,1.5,33.5,2.3
	c1.9,0.1,3.8,0.4,5.9,0.7c-0.6,2.4-2.2,3.8-3.4,5.5c-1.3,1.8-2.7,3.6-4,5.4c-1.3,1.7-2.5,3.3-3.8,5c-1.3,1.7-2.5,3.3-3.8,5
	c-1.3,1.8-2.7,3.6-4,5.4c-1.3,1.7-2.5,3.3-3.8,5c-1.3,1.7-2.5,3.3-3.8,5c-1.3,1.8-2.7,3.6-4,5.4c-1.3,1.7-2.5,3.3-3.8,5
	c-1.3,1.7-2.5,3.3-3.8,5c-1.3,1.8-2.7,3.6-4,5.4c-1.3,1.7-2.5,3.3-3.8,5c-1.3,1.7-2.5,3.3-3.8,5c-1.4,1.8-2.7,3.6-4,5.4
	c-1.3,1.7-2.5,3.3-3.8,5s-2.5,3.3-3.8,5c-1.4,1.8-2.7,3.6-4,5.4c-1.3,1.7-2.5,3.3-3.8,5c-1.3,1.7-2.5,3.3-3.8,5
	c-1.4,1.8-2.7,3.5-4,5.4c-1.1,1.6-2.7,3-3.7,5.8c1.9-1.3,3.1-2,4.2-2.9c17.1-12.9,34.2-25.8,51.3-38.8
	c16.1-12.1,32.1-24.3,48.2-36.4c1.4-1,2.6-2.3,4.4-2.7c0.2,0.6,0.4,1.1,0.4,1.5c0.6,8.4,1.2,16.9,1.8,25.4
	c0.8,10.8,1.5,21.7,2.2,32.5c0.8,11.6,1.7,23.3,2.5,34.9c0.8,11,1.5,22,2.3,33c0.9,12.4,1.8,24.9,2.6,37.3
	c0.7,10.4,1.4,20.7,2.2,31.1c0.9,12.1,1.7,24.2,2.6,36.4c0.7,10.5,1.5,21.1,2.2,31.6c0.9,12.3,1.8,24.6,2.6,36.8
	c0.7,10.5,1.5,21.1,2.2,31.6c1.1,15.9,2.3,31.9,3.4,47.8c0.8,11.2,1.5,22.3,2.3,33.5c0.3,3.7,0.6,7.3,0.9,11
	c0.5-0.9,0.7-1.8,0.7-2.7c0.4-5.4,0.8-10.8,1.2-16.3c0.9-12.1,1.7-24.2,2.6-36.4c0.7-10.5,1.5-21.1,2.2-31.6
	c0.9-12.3,1.8-24.6,2.6-36.8c0.7-10.4,1.4-20.7,2.2-31.1c0.9-12.4,1.8-24.9,2.6-37.3c0.7-10.4,1.4-20.7,2.2-31.1
	c0.8-11.6,1.7-23.3,2.5-34.9c0.8-11,1.5-22,2.3-33c0.9-12.4,1.8-24.9,2.6-37.3c0.7-10.4,1.4-20.7,2.2-31.1c0.8-11.5,1.7-23,2.5-34.4
	c0.7-9.7,1.4-19.5,2.1-29.2c0-0.4,0.4-0.8,0.7-1.4c1.5,1,2.8,1.9,4,2.8c18.5,14,37,28,55.5,41.9c15.3,11.6,30.6,23.1,46,34.7
	c0.6,0.4,1.1,1.6,2.5,0.8c-3-4-6-8-9-12c-3-4-6-7.9-9-11.9c-3-4-6-7.9-9-11.9c-3-4-6-7.9-9-11.9c-3.1-4.1-6.2-8.2-9.3-12.2
	c-3-4-6-7.9-9-11.9c-3-4-6-7.9-9-11.9s-6-7.9-9-11.9c-2.9-4-6.2-7.6-8.9-12.3c2.3-0.3,4.2-0.5,6-0.7c10.7-0.8,21.4-1.5,32.1-2.2
	c10.8-0.7,21.7-1.5,32.5-2.2c12.4-0.9,24.9-1.8,37.3-2.6c10.4-0.7,20.7-1.4,31.1-2.2c12.1-0.9,24.2-1.7,36.4-2.6
	c10.5-0.7,21.1-1.5,31.6-2.2c12.3-0.9,24.6-1.8,36.8-2.6c10.5-0.7,21.1-1.5,31.6-2.2c11.3-0.8,22.6-1.7,34-2.5
	c11.2-0.8,22.3-1.5,33.5-2.3c17.4-1.2,34.8-2.4,52.2-3.7c8.7-0.6,17.3-1.4,26-2.1c0-0.1,0-0.3,0-0.4c-149.2,0-298.4,0-447.5,0
	c-1.1,1.5-1,3.2-1.2,4.7c-2.9,18.8-22.5,30.6-40.4,24c-11.7-4.3-18.4-12.9-20.2-25.2c-0.2-1.2,0.1-2.6-1.3-3.6
	c-149.1,0-298.3,0-447.7,0C755.2,417.1,755.3,417.2,755.4,417.2z M1262.5,436.7c1.3,0.3,1,1.3,1,2c-0.3,4.9-0.6,9.9-1,14.8
	c-1.1,15.8-2.3,31.6-3.4,47.4c-0.8,10.7-1.5,21.4-2.2,32.1c-0.8,12-1.7,23.9-2.6,35.9c-0.7,10.4-1.4,20.7-2.2,31.1
	c-0.9,12.4-1.8,24.9-2.6,37.3c-0.8,10.8-1.5,21.7-2.2,32.5c-0.8,11.6-1.7,23.3-2.5,34.9c-0.8,10.7-1.5,21.4-2.2,32.1
	c-0.9,12.1-1.7,24.2-2.6,36.4c-0.8,11-1.5,22-2.3,33c-0.7,10.5-1.5,21-2.6,31.6c-0.1-0.9-0.4-1.8-0.4-2.7c-0.1-3-0.1-6.1-0.1-9.1
	c0-122.8,0-245.6,0-368.4c0-1.9,0.1-3.8,0.1-6.1C1246.6,450.6,1255.8,445.8,1262.5,436.7z M1203.7,468.8c-0.2,0.6-0.3,0.7-0.4,0.9
	c-0.1,0.1-0.2,0.3-0.3,0.4c-0.6,0.5-1.2,1.1-1.8,1.5c-27.4,20.7-54.9,41.4-82.3,62.1c-0.2,0.2-0.5,0.2-0.8,0.3
	c0-0.3-0.1-0.7,0.1-0.8c27.6-27.6,55.2-55.2,82.8-82.7c0.2-0.2,0.6-0.1,1.1-0.2C1203.3,456.5,1202.9,462.9,1203.7,468.8z
	 M1265.4,470c-0.3-6.6,0.7-13.1,1.1-20.1c1,0.6,1.6,0.9,2.2,1.3c0.6,0.5,1.1,1.1,1.7,1.7c25.7,25.7,51.5,51.5,77.2,77.2
	c1.1,1.1,2.2,2.2,3.3,3.4c-0.2,0.2-0.4,0.4-0.6,0.7C1322,512.7,1293.8,491.4,1265.4,470z M248.5,375.8c-0.6-5.9-0.4-77.4,0.1-81
	c0.4-0.2,0.8-0.5,1.3-0.5c112.4,0,224.8,0,337.2,0c0.4,0,0.9,0.3,1.3,0.5c0.5,3.6,0.6,75.4,0.1,80.8c-0.8,0.2-1.7,0.5-2.6,0.5
	c-1.3,0.1-2.6,0-3.8,0c-109.1,0-218.1,0-327.2,0C252.8,376.1,250.8,376.3,248.5,375.8z M1859.5,294.9c0.1,0.4,0.4,0.8,0.4,1.3
	c0,25.9,0.1,51.8,0.1,77.7c0,0.6-0.3,1.2-0.4,1.9c-1.8,0.7-3.6,0.4-5.3,0.4c-17.6,0-35.2,0-52.8,0c-52.6,0-105.2,0-157.8,0
	c-4.7,0-9.3,0.3-13.7,1.7c-12.5,4.1-21.2,12.2-26.1,24.3c-0.6,1.5-1.1,3-1.6,4.3c-0.3,0.2-0.4,0.3-0.6,0.4c-0.1,0.1-0.3,0.2-0.5,0.2
	c-25.3,0-50.5,0.1-75.8,0.1c-1.3,0-2.6,0-3.8,0c-0.3,0-0.6-0.1-0.9-0.2c-0.1,0-0.3-0.2-0.7-0.5c0-0.7-0.1-1.6,0-2.5
	c6-54.3,45.7-95,93.7-106.2c9.4-2.2,18.9-3.2,28.5-3.2c70.8,0,141.7,0,212.5,0C1856.3,294.3,1857.9,294,1859.5,294.9z M949.3,406.6
	c-0.7,0.2-1.3,0.4-1.9,0.5c-5.6,0.4-77,0.1-80.3-0.4c-0.4-1.1-0.8-2.2-1.3-3.4c-5.5-14.2-15.6-23.1-30.5-26.4
	c-1.6-0.3-3.2-0.5-4.7-0.6c-2.2-0.1-4.5-0.1-6.7-0.1c-69.4,0-138.8,0-208.2,0c-1.9,0-3.8-0.1-5.4-0.1c-1.4-1.3-1.1-2.7-1.1-3.9
	c0-7.2,0-14.4,0-21.6c0-16.8,0-33.6,0-50.3c0-1.7-0.3-3.5,0.5-5.4c0.9-0.2,1.8-0.4,2.7-0.5c1.1-0.1,2.2,0,3.4,0
	c70,0,140.1,0,210.1,0c18.2,0,35.7,3.2,52.1,11c37.4,17.8,60.6,47,69.6,87.4C948.5,397.2,949.2,401.8,949.3,406.6z M1208.2,670.9
	c1.5,21.1,2.9,41.8,4.4,62.8c-1.2,0.1-2.2,0.3-3,0.2c-115.2-9.2-209.2-77.8-257.4-170.3c-9.4-18.1-17-36.8-22.7-56.4
	c-0.2-0.6-0.4-1.2-0.6-1.8c-0.8-2-0.3-3.6,1.1-5.3c7.2-8.6,13-18.2,17.7-28.4c3.8-8.3,6.7-16.9,8.7-25.8c0.3-1.4,0.7-2.7,1-4
	c3.8-0.3,19.5,0.7,22.9,1.6c7,59.6,31.1,111.2,73.7,153.8C1096.5,639.7,1148,663.8,1208.2,670.9z M1488.6,443.5
	c0.7-0.2,1.2-0.6,1.8-0.6c7-0.5,14-1,21.1-1.4c0.9,1.5,1.1,2.9,1.4,4.2c4.4,19.8,13,37.7,25.6,53.6c0.7,0.9,1.3,1.8,2,2.6
	c-32.1,124.2-147.9,224.1-283.9,231.9c-0.1-0.9-0.4-1.8-0.3-2.7c1.2-17.1,2.3-34.1,3.6-51.2c0.2-2.9,0.5-5.7,0.8-8.7
	c1.7-0.8,3.4-0.9,5.1-1.1c102-12.2,189.9-86.8,216.3-190.8c2.8-11,4.8-22.2,6.1-33.5C1488.2,445.1,1488.4,444.4,1488.6,443.5z
	 M1382.5,406.9c-4.6,0.2-8.8,0.3-13.4,0c-0.3-1.5-0.6-2.9-0.7-4.3c-5.6-55.3-46.9-105-106.4-117.1c-75-15.2-142.9,33.9-157.9,102.3
	c-1.3,6.1-2.2,12.3-3.3,18.7c-1.9,1.1-4.3,0.5-6.7,0.5c-2.2,0-4.4,0.5-6.6-0.4c0.5-26.1,12.5-62.7,39-90.6
	c28.7-30.2,63.9-46.3,105.6-47.2C1316.6,267.1,1379.1,335.1,1382.5,406.9z M1350.4,508.8c-2.9-3.8-5.6-7.4-8.4-11.1
	c10.2-13.8,17.8-28.9,22.3-45.2c3.8-1.3,10.2-1.8,14.2-1C1376.3,468.5,1361.5,497.5,1350.4,508.8z M1315,524.5
	c4.1,2.8,7.6,5.4,11.1,8.3c-8.4,10-43,26.7-57,27.8c-0.8-3.1-0.7-5.7,0.6-13.9c7.9-2.5,15.8-5.2,23.4-8.9
	C1300.7,534,1307.9,529.6,1315,524.5z M1200.3,560.8c-21.4-5.2-40.1-14.4-57.2-27.8c0.7-0.8,1.1-1.4,1.6-1.9c3-2.3,6.1-4.6,9.4-7.1
	c2.8,1.9,5.5,3.8,8.3,5.6c2.8,1.8,5.7,3.5,8.6,5.1c2.9,1.6,5.9,3.1,9,4.5c3,1.4,6.2,2.6,9.3,3.8c3.1,1.2,6.3,2.1,9.6,3.2
	C1200,550.8,1200.1,555.3,1200.3,560.8z M1127.1,497c-0.4,0.6-0.8,1.3-1.3,1.9c-2.2,2.9-4.4,5.8-6.8,9c-0.7-0.6-1.4-0.9-1.9-1.5
	c-12-15.8-20.6-33.3-25.5-52.5c-0.2-0.8-0.3-1.5-0.5-2.3c4.1-0.7,10-0.4,14.2,0.8C1113.6,474.9,1111.3,471.6,1127.1,497z
	 M1245.4,416.8c0,6.2-4.8,10.9-10.9,10.7c-5.9-0.1-10.5-4.7-10.5-10.7c0-5.9,4.6-10.6,10.5-10.8
	C1240.6,405.9,1245.4,410.7,1245.4,416.8z"/>
<text transform="matrix(1 0 0 1 1981.2542 815.9487)" class="st1 st2 st3 st4">2024</text>
<g>
	<text transform="matrix(1 0 0 1 433.481 996.7012)" class="st1 st5 st6">NAVIGATING THROUGH TIMELESS TRAILS</text>
	<path class="st1" d="M2220.9,874c-323-0.5-650.7-0.5-974,0l0-3c323.3-0.5,651-0.5,974,0L2220.9,874z M1222.1,874
		c-323.1-0.5-650.8-0.5-974,0l0-3c323.2-0.5,650.9-0.5,974,0L1222.1,874z"/>
</g>
</svg>
